<svg width="50" height="50" viewBox="0 0 50 50" fill="none" xmlns="http://www.w3.org/2000/svg">
<rect width="50" height="50" rx="8" fill="#2E3740"/>
<path d="M19.9605 14C16.1226 14 13 16.9868 13 20.6579V29.3421C13 33.0132 16.1226 36 19.9605 36H29.0395C32.8774 36 36 33.0132 36 29.3421V20.6579C36 16.9868 32.8774 14 29.0395 14H19.9605ZM30.5526 18.0526C31.2214 18.0526 31.7632 18.5708 31.7632 19.2105C31.7632 19.8497 31.2214 20.3684 30.5526 20.3684C29.8838 20.3684 29.3421 19.8497 29.3421 19.2105C29.3421 18.5708 29.8838 18.0526 30.5526 18.0526ZM24.5 19.2105C27.8374 19.2105 30.5526 21.8077 30.5526 25C30.5526 28.1923 27.8374 30.7895 24.5 30.7895C21.1626 30.7895 18.4474 28.1923 18.4474 25C18.4474 21.8077 21.1626 19.2105 24.5 19.2105ZM24.5 20.9474C23.9436 20.9474 23.3927 21.0522 22.8786 21.2559C22.3646 21.4595 21.8975 21.758 21.5041 22.1344C21.1107 22.5107 20.7986 22.9574 20.5857 23.4491C20.3727 23.9408 20.2632 24.4678 20.2632 25C20.2632 25.5322 20.3727 26.0592 20.5857 26.5509C20.7986 27.0426 21.1107 27.4893 21.5041 27.8656C21.8975 28.242 22.3646 28.5405 22.8786 28.7441C23.3927 28.9478 23.9436 29.0526 24.5 29.0526C25.0564 29.0526 25.6073 28.9478 26.1214 28.7441C26.6354 28.5405 27.1025 28.242 27.4959 27.8656C27.8893 27.4893 28.2014 27.0426 28.4143 26.5509C28.6273 26.0592 28.7368 25.5322 28.7368 25C28.7368 24.4678 28.6273 23.9408 28.4143 23.4491C28.2014 22.9574 27.8893 22.5107 27.4959 22.1344C27.1025 21.758 26.6354 21.4595 26.1214 21.2559C25.6073 21.0522 25.0564 20.9474 24.5 20.9474Z" fill="#69A3FD"/>
</svg>
