<svg width="390" height="1010" viewBox="0 0 390 1010" fill="none" xmlns="http://www.w3.org/2000/svg">
<path opacity="0.04" d="M-202.563 274.321C-109 321.08 -154.496 436.42 -215.037 505C-154.496 573.58 -109 688.92 -202.563 735.679C-274.294 771.528 -364.737 748.407 -364.737 673.333C-364.737 604.753 -278.921 604.148 -305.481 648.395C-324.194 679.568 -275.304 726.536 -243.106 670.216C-218.156 626.574 -286.769 539.29 -370.975 589.167C-399.044 605.792 -414.637 635.926 -417.756 654.63C-480.131 567.346 -586.169 570.463 -608 601.636C-455.181 629.691 -448.944 729.444 -327.312 791.79C-297.214 807.218 -213.644 813.483 -130.285 750.125C-129.503 749.531 -128.399 750.323 -128.691 751.26C-167.849 876.974 -143.027 938.887 -109 1010C-74.9734 938.887 -50.1511 876.974 -89.3091 751.26C-89.6011 750.323 -88.4969 749.531 -87.7153 750.125C-4.35632 813.483 79.2143 807.218 109.312 791.79C230.944 729.444 237.181 629.691 390 601.636C368.169 570.463 262.131 567.346 199.756 654.63C196.638 635.926 181.044 605.792 152.975 589.167C68.7688 539.29 0.15625 626.574 25.1063 670.216C57.3042 726.536 106.194 679.568 87.4813 648.395C60.9207 604.148 146.738 604.753 146.738 673.333C146.738 748.407 56.2938 771.528 -15.4374 735.679C-109 688.92 -63.5039 573.58 -2.96289 505C-63.5039 436.42 -109 321.08 -15.4374 274.321C56.2938 238.472 146.738 261.593 146.738 336.667C146.738 405.247 60.9207 405.852 87.4813 361.605C106.194 330.432 57.3042 283.464 25.1063 339.784C0.15625 383.426 68.7688 470.71 152.975 420.833C181.044 404.208 196.638 374.074 199.756 355.37C262.131 442.654 368.169 439.537 390 408.364C237.181 380.309 230.944 280.556 109.312 218.21C79.2143 202.782 -4.35632 196.517 -87.7153 259.875C-88.4969 260.469 -89.6011 259.677 -89.3091 258.74C-50.1511 133.026 -74.9734 71.1131 -109 -6.10352e-05C-143.027 71.1131 -167.849 133.026 -128.691 258.74C-128.399 259.677 -129.503 260.469 -130.285 259.875C-213.644 196.517 -297.214 202.782 -327.313 218.21C-448.944 280.556 -455.181 380.309 -608 408.364C-586.169 439.537 -480.131 442.654 -417.756 355.37C-414.637 374.074 -399.044 404.208 -370.975 420.833C-286.769 470.71 -218.156 383.426 -243.106 339.784C-275.304 283.464 -324.194 330.432 -305.481 361.605C-278.921 405.852 -364.737 405.247 -364.737 336.667C-364.737 261.593 -274.294 238.472 -202.563 274.321Z" fill="#5178B4"/>
</svg>
