<svg width="164" height="162" viewBox="0 0 164 162" fill="none" xmlns="http://www.w3.org/2000/svg">
<mask id="mask0_1309_89" style="mask-type:alpha" maskUnits="userSpaceOnUse" x="0" y="0" width="164" height="162">
<path opacity="0.15" d="M44.5432 96.1875C52.1358 81 70.8642 88.3851 82 98.2124C93.1358 88.3851 111.864 81 119.457 96.1875C125.278 107.831 121.524 122.512 109.333 122.512C98.1975 122.512 98.0993 108.582 105.284 112.894C110.346 115.931 117.972 107.995 108.827 102.769C101.741 98.7187 87.5679 109.856 95.6667 123.525C98.3663 128.081 103.259 130.612 106.296 131.119C92.1235 141.244 92.6296 158.456 97.6914 162C102.247 137.194 118.444 136.181 128.568 116.437C130.938 111.815 131.976 99.4238 123.369 86.6425C122.821 85.8282 123.626 84.6967 124.572 84.9617C143.27 90.2022 152.951 86.2851 164 81C152.951 75.7149 143.27 71.7978 124.572 77.0383C123.626 77.3033 122.821 76.1718 123.369 75.3575C131.976 62.5762 130.938 50.1848 128.568 45.5625C118.444 25.8187 102.247 24.8062 97.6914 -7.90723e-07C92.6296 3.54375 92.1235 20.7562 106.296 30.8812C103.259 31.3875 98.3663 33.9187 95.6667 38.475C87.5679 52.1437 101.741 63.2812 108.827 59.2312C117.972 54.0047 110.346 46.0687 105.284 49.1062C98.0993 53.4177 98.1975 39.4875 109.333 39.4875C121.524 39.4875 125.278 54.1687 119.457 65.8125C111.864 81 93.1358 73.6149 82 63.7876C70.8642 73.6149 52.1358 81 44.5432 65.8125C38.7222 54.1687 42.4764 39.4875 54.6667 39.4875C65.8025 39.4875 65.9007 53.4177 58.7161 49.1062C53.6543 46.0687 46.0278 54.0047 55.1728 59.2312C62.2593 63.2812 76.4321 52.1437 68.3333 38.475C65.6338 33.9187 60.7407 31.3875 57.7037 30.8812C71.8765 20.7562 71.3704 3.54375 66.3086 -1.16496e-06C61.7531 24.8062 45.5556 25.8187 35.4321 45.5625C33.0621 50.1848 32.0237 62.5762 40.6305 75.3575C41.1789 76.1718 40.3736 77.3033 39.4282 77.0383C20.7301 71.7978 11.049 75.7149 9.65915e-07 81C11.049 86.2851 20.7301 90.2022 39.4282 84.9617C40.3736 84.6967 41.1789 85.8282 40.6305 86.6425C32.0237 99.4238 33.0621 111.815 35.4321 116.437C45.5556 136.181 61.7531 137.194 66.3086 162C71.3704 158.456 71.8765 141.244 57.7037 131.119C60.7407 130.612 65.6338 128.081 68.3333 123.525C76.4321 109.856 62.2593 98.7187 55.1728 102.769C46.0278 107.995 53.6543 115.931 58.716 112.894C65.9007 108.582 65.8025 122.512 54.6667 122.512C42.4764 122.512 38.7222 107.831 44.5432 96.1875Z" fill="white"/>
</mask>
<g mask="url(#mask0_1309_89)">
<rect x="-256" y="-10" width="380" height="120" rx="4" fill="white"/>
</g>
</svg>
