<svg width="430" height="1010" viewBox="0 0 430 1010" fill="none" xmlns="http://www.w3.org/2000/svg">
<path opacity="0.03" d="M405.437 274.321C499 321.08 453.504 436.42 392.963 505C453.504 573.58 499 688.92 405.437 735.679C333.706 771.528 243.263 748.407 243.263 673.333C243.263 604.753 329.079 604.148 302.519 648.395C283.806 679.568 332.696 726.536 364.894 670.216C389.844 626.574 321.231 539.29 237.025 589.167C208.956 605.792 193.363 635.926 190.244 654.63C127.869 567.346 21.8312 570.463 0 601.636C152.819 629.691 159.056 729.444 280.688 791.79C310.786 807.218 394.356 813.483 477.715 750.125C478.497 749.531 479.601 750.323 479.309 751.26C440.151 876.974 464.973 938.887 499 1010C533.027 938.887 557.849 876.974 518.691 751.26C518.399 750.323 519.503 749.531 520.285 750.125C603.644 813.483 687.214 807.218 717.312 791.79C838.944 729.444 845.181 629.691 998 601.636C976.169 570.463 870.131 567.346 807.756 654.63C804.638 635.926 789.044 605.792 760.975 589.167C676.769 539.29 608.156 626.574 633.106 670.216C665.304 726.536 714.194 679.568 695.481 648.395C668.921 604.148 754.738 604.753 754.738 673.333C754.738 748.407 664.294 771.528 592.563 735.679C499 688.92 544.496 573.58 605.037 505C544.496 436.42 499 321.08 592.563 274.321C664.294 238.472 754.738 261.593 754.738 336.667C754.738 405.247 668.921 405.852 695.481 361.605C714.194 330.432 665.304 283.464 633.106 339.784C608.156 383.426 676.769 470.71 760.975 420.833C789.044 404.208 804.638 374.074 807.756 355.37C870.131 442.654 976.169 439.537 998 408.364C845.181 380.309 838.944 280.556 717.312 218.21C687.214 202.782 603.644 196.517 520.285 259.875C519.503 260.469 518.399 259.677 518.691 258.74C557.849 133.026 533.027 71.1131 499 -6.10352e-05C464.973 71.1131 440.151 133.026 479.309 258.74C479.601 259.677 478.497 260.469 477.715 259.875C394.356 196.517 310.786 202.782 280.687 218.21C159.056 280.556 152.819 380.309 1.82978e-05 408.364C21.8313 439.537 127.869 442.654 190.244 355.37C193.363 374.074 208.956 404.208 237.025 420.833C321.231 470.71 389.844 383.426 364.894 339.784C332.696 283.464 283.806 330.432 302.519 361.605C329.079 405.852 243.263 405.247 243.263 336.667C243.263 261.593 333.706 238.472 405.437 274.321Z" fill="#5178B4"/>
</svg>
