<svg width="27" height="37" viewBox="0 0 27 37" fill="none" xmlns="http://www.w3.org/2000/svg">
<path d="M8.35714 18.5H18.6429M8.35714 25.8333H18.6429M22.0714 35H4.92857C4.01926 35 3.14719 34.6137 2.50421 33.9261C1.86122 33.2384 1.5 32.3058 1.5 31.3333V5.66667C1.5 4.69421 1.86122 3.76158 2.50421 3.07394C3.14719 2.38631 4.01926 2 4.92857 2H14.5046C14.9592 2.0001 15.3952 2.19333 15.7166 2.53717L24.9977 12.4628C25.3192 12.8066 25.4999 13.2728 25.5 13.759V31.3333C25.5 32.3058 25.1388 33.2384 24.4958 33.9261C23.8528 34.6137 22.9807 35 22.0714 35Z" stroke="#5178B4" stroke-width="3" stroke-linecap="round" stroke-linejoin="round"/>
</svg>
