<svg width="50" height="50" viewBox="0 0 50 50" fill="none" xmlns="http://www.w3.org/2000/svg">
<rect width="50" height="50" rx="8" fill="#2E3740"/>
<path d="M35.5279 14.3024C35.1015 13.9526 34.4317 13.9026 33.7391 14.1715H33.738C33.0096 14.4542 13.1202 22.7065 12.3105 23.0436C12.1632 23.0931 10.8771 23.5573 11.0096 24.5913C11.1278 25.5236 12.1615 25.9097 12.2878 25.9542L17.3443 27.629C17.6797 28.7092 18.9164 32.6945 19.1899 33.5459C19.3605 34.0766 19.6385 34.774 20.1258 34.9176C20.5534 35.0771 20.9787 34.9313 21.2539 34.7223L24.3454 31.9487L29.3359 35.7134L29.4548 35.7822C29.7936 35.9274 30.1183 36 30.4282 36C30.6676 36 30.8973 35.9566 31.1168 35.8696C31.8645 35.5726 32.1635 34.8835 32.1948 34.8054L35.9225 16.063C36.15 15.062 35.8338 14.5527 35.5279 14.3024ZM21.8038 28.2989L20.098 32.6989L18.3922 27.1989L31.4699 17.8488L21.8038 28.2989Z" fill="#69A3FD"/>
</svg>
