<svg width="50" height="50" viewBox="0 0 50 50" fill="none" xmlns="http://www.w3.org/2000/svg">
<rect width="50" height="50" rx="8" fill="#2E3740"/>
<path d="M25 14C18.9335 14 14 18.9335 14 25C14 26.7545 14.4235 28.487 15.2265 30.0435L14.0495 34.2565C13.9175 34.735 14.055 35.2465 14.4015 35.5985C14.6655 35.857 15.0175 36 15.375 36C15.5015 36 15.6225 35.9835 15.7435 35.9505L19.9565 34.7735C21.513 35.5765 23.251 36 25 36C31.0665 36 36 31.0665 36 25C36 18.9335 31.0665 14 25 14ZM30.698 29.0535C30.456 29.73 29.268 30.3845 28.7345 30.434C28.201 30.4835 27.7005 30.676 25.2475 29.708C22.2885 28.542 20.4185 25.5115 20.2755 25.3135C20.127 25.121 19.0875 23.7405 19.0875 22.305C19.0875 20.875 19.841 20.171 20.105 19.8795C20.3745 19.588 20.688 19.5165 20.8805 19.5165C21.0785 19.5165 21.271 19.5165 21.4415 19.522C21.645 19.533 21.876 19.544 22.096 20.028C22.3545 20.6 22.921 22.041 22.9925 22.1895C23.064 22.3325 23.1135 22.503 23.0145 22.6955C22.921 22.888 22.8715 23.009 22.723 23.1795C22.58 23.35 22.4205 23.559 22.2885 23.691C22.1455 23.834 21.9915 23.9935 22.162 24.285C22.3325 24.5765 22.9155 25.528 23.779 26.298C24.89 27.288 25.825 27.596 26.1165 27.7445C26.408 27.8875 26.5785 27.8655 26.749 27.6675C26.9195 27.475 27.475 26.8205 27.673 26.529C27.8655 26.2375 28.058 26.287 28.3275 26.386C28.5915 26.4795 30.0215 27.1835 30.313 27.332C30.6045 27.475 30.797 27.5465 30.8685 27.6675C30.94 27.7885 30.94 28.3715 30.698 29.0535Z" fill="#69A3FD"/>
</svg>
