<svg width="50" height="51" viewBox="0 0 50 51" fill="none" xmlns="http://www.w3.org/2000/svg">
<rect y="0.338379" width="50" height="50" rx="8" fill="white"/>
<path d="M38.7878 25.7535V25.5006C38.7878 24.3938 38.7751 23.3851 38.7561 23.0499C38.8155 21.1989 38.4095 19.3625 37.5751 17.7091C37.0183 17.0198 36.2331 16.5526 35.3616 16.3921C31.7757 16.0814 28.1762 15.9552 24.5773 16.0143C20.9784 15.9549 17.3788 16.081 13.7929 16.3921C13.082 16.5247 12.4237 16.8577 11.8957 17.3518C10.9226 18.6302 10.4225 20.2064 10.4806 21.812C10.3858 23.0768 10.3478 24.2784 10.3447 25.5006H10.3289V26.0065C10.3289 27.2286 10.37 28.4318 10.4648 29.6951C10.409 31.3016 10.9118 32.8779 11.8878 34.1552C12.4158 34.6495 13.074 34.9824 13.785 35.1149C17.3709 35.4261 20.9705 35.5522 24.5694 35.4928C28.1683 35.5518 31.7678 35.4257 35.3537 35.1149C36.2252 34.9544 37.0104 34.4872 37.5672 33.7979C38.4016 32.1445 38.8076 30.3082 38.7482 28.4571C38.7672 28.1219 38.7783 27.1069 38.7799 26.0065L38.7878 25.7535Z" fill="#5178B4"/>
<path d="M21.2524 21.2539V30.2532C24.274 28.6121 29.8662 25.7662 29.8662 25.7662L21.2526 21.2539H21.2524Z" fill="white"/>
</svg>
