<svg width="50" height="51" viewBox="0 0 50 51" fill="none" xmlns="http://www.w3.org/2000/svg">
<rect y="0.338379" width="50" height="50" rx="8" fill="#2E3740"/>
<path d="M38.788 25.7535V25.5006C38.788 24.3938 38.7754 23.3851 38.7564 23.0499C38.8158 21.1989 38.4097 19.3625 37.5753 17.7091C37.0185 17.0198 36.2333 16.5526 35.3619 16.3921C31.7759 16.0814 28.1764 15.9552 24.5775 16.0143C20.9786 15.9549 17.3791 16.081 13.7932 16.3921C13.0822 16.5247 12.424 16.8577 11.8959 17.3518C10.9228 18.6302 10.4228 20.2064 10.4809 21.812C10.386 23.0768 10.3481 24.2784 10.3449 25.5006H10.3291V26.0065C10.3291 27.2286 10.3702 28.4318 10.4651 29.6951C10.4092 31.3016 10.9121 32.8779 11.888 34.1552C12.4161 34.6495 13.0743 34.9824 13.7853 35.1149C17.3712 35.4261 20.9707 35.5522 24.5696 35.4928C28.1685 35.5518 31.768 35.4257 35.354 35.1149C36.2254 34.9544 37.0106 34.4872 37.5674 33.7979C38.4018 32.1445 38.8079 30.3082 38.7485 28.4571C38.7675 28.1219 38.7785 27.1069 38.7801 26.0065L38.788 25.7535Z" fill="#69A3FD"/>
<path d="M21.2529 21.2539V30.2532C24.2745 28.6121 29.8666 25.7662 29.8666 25.7662L21.2531 21.2539H21.2529Z" fill="#2E3740"/>
</svg>
